<?xml version="1.0" encoding="UTF-8" standalone="no"?> <svg xmlns="http://www.w3.org/2000/svg" viewBox="0 0 64 64"><defs><style>.cls-1{fill:#fff35f;}.cls-1,.cls-2,.cls-5,.cls-6{stroke:#54596e;stroke-linecap:round;stroke-linejoin:round;stroke-width:2px;}.cls-2{fill:none;}.cls-3{fill:#54596e;}.cls-4{fill:#ff927d;}.cls-5{fill:#61c5a8;}.cls-6{fill:#55a6ff;}</style></defs><title>dollar-add</title><g id="dollar-add"><circle class="cls-1" cx="24" cy="32" r="21"/><path class="cls-2" d="M18.86,33.07A7,7,0,0,0,24,35a7,7,0,0,0,5.1-1.9"/><circle class="cls-3" cx="15" cy="23" r="2"/><circle class="cls-3" cx="33" cy="23" r="2"/><circle class="cls-4" cx="33" cy="29" r="2"/><circle class="cls-4" cx="15" cy="29" r="2"/><rect class="cls-5" x="21" y="41" width="42" height="19"/><path class="cls-5" d="M56.81,44H27.19A12.66,12.66,0,0,1,24,47.19v6.62A12.66,12.66,0,0,1,27.19,57H38.84a5.5,5.5,0,1,1,6.31,0H56.81A12.66,12.66,0,0,1,60,53.81V47.19A12.66,12.66,0,0,1,56.81,44Z"/><circle class="cls-3" cx="54" cy="51" r="2"/><circle class="cls-3" cx="30" cy="51" r="2"/><circle class="cls-6" cx="45" cy="13" r="11"/><line class="cls-2" x1="45" y1="7" x2="45" y2="19"/><line class="cls-2" x1="39" y1="13" x2="51" y2="13"/></g></svg>