<?xml version="1.0" encoding="utf-8"?>
<!-- Generator: Adobe Illustrator 26.0.2, SVG Export Plug-In . SVG Version: 6.00 Build 0)  -->
<svg version="1.1" id="Layer_3" xmlns="http://www.w3.org/2000/svg" xmlns:xlink="http://www.w3.org/1999/xlink" x="0px" y="0px"
	 viewBox="0 0 64 64" style="enable-background:new 0 0 64 64;" xml:space="preserve">
<g>
	<path d="M32,3V1C14.906,1,1,14.907,1,32h2C3,16.009,16.01,3,32,3z"/>
	<path d="M61,32c0,15.99-13.01,29-29,29v2c17.094,0,31-13.906,31-31H61z"/>
	<path d="M32,7C18.215,7,7,18.215,7,32s11.215,25,25,25s25-11.215,25-25S45.785,7,32,7z M32,55C19.317,55,9,44.683,9,32
		C9,19.318,19.317,9,32,9s23,10.318,23,23C55,44.683,44.683,55,32,55z"/>
	<path d="M19.045,60.092c0.614,0.278,1.244,0.54,1.874,0.777l0.705-1.871c-0.594-0.224-1.178-0.466-1.751-0.727L19.045,60.092z"/>
	<path d="M2.99,34.736L1,34.933c0.067,0.677,0.155,1.346,0.265,2.008l1.974-0.326C3.136,35.996,3.053,35.369,2.99,34.736z"/>
	<path d="M26.785,62.439c0.663,0.109,1.333,0.197,2.009,0.263l0.194-1.99c-0.632-0.062-1.259-0.144-1.879-0.246L26.785,62.439z"/>
	<path d="M22.839,61.521c0.639,0.194,1.298,0.371,1.958,0.524l0.454-1.948c-0.618-0.144-1.228-0.307-1.831-0.49L22.839,61.521z"/>
	<path d="M3.608,38.474l-1.947,0.455c0.153,0.654,0.33,1.312,0.526,1.957L4.1,40.304C3.917,39.702,3.752,39.092,3.608,38.474z"/>
	<path d="M15.473,58.178c0.572,0.357,1.158,0.695,1.755,1.015l0.944-1.763c-0.558-0.299-1.105-0.616-1.641-0.95L15.473,58.178z"/>
	<path d="M9.227,53.047c0.462,0.493,0.939,0.971,1.433,1.433l1.367-1.46c-0.461-0.432-0.908-0.879-1.34-1.34L9.227,53.047z"/>
	<path d="M12.183,55.815c0.521,0.428,1.057,0.84,1.606,1.235l1.167-1.625c-0.514-0.369-1.016-0.754-1.503-1.155L12.183,55.815z"/>
	<path d="M4.71,42.096l-1.871,0.706c0.236,0.625,0.497,1.254,0.777,1.869l1.82-0.828C5.176,43.27,4.933,42.688,4.71,42.096z"/>
	<path d="M8.28,48.752l-1.624,1.167c0.395,0.549,0.806,1.084,1.234,1.605l1.545-1.27C9.034,49.767,8.649,49.266,8.28,48.752z"/>
	<path d="M6.277,45.541l-1.763,0.944c0.319,0.596,0.658,1.181,1.015,1.752l1.696-1.059C6.892,46.644,6.576,46.098,6.277,45.541z"/>
	<path d="M60.089,25.229l1.947-0.455c-0.153-0.654-0.33-1.312-0.526-1.957l-1.913,0.582C59.781,24,59.945,24.61,60.089,25.229z"/>
	<path d="M60.707,28.966l1.99-0.197c-0.067-0.677-0.155-1.346-0.265-2.008l-1.974,0.326C60.562,27.707,60.644,28.333,60.707,28.966z
		"/>
	<path d="M57.42,18.162l1.763-0.944c-0.319-0.596-0.658-1.181-1.015-1.752l-1.696,1.059C56.805,17.058,57.122,17.604,57.42,18.162z"
		/>
	<path d="M58.987,21.606l1.871-0.706c-0.236-0.625-0.497-1.254-0.777-1.869l-1.82,0.828C58.521,20.432,58.764,21.015,58.987,21.606z
		"/>
	<path d="M54.47,10.655c-0.462-0.493-0.939-0.971-1.433-1.433l-1.367,1.46c0.461,0.432,0.908,0.879,1.34,1.34L54.47,10.655z"/>
	<path d="M55.417,14.95l1.624-1.167c-0.395-0.549-0.806-1.084-1.234-1.605l-1.545,1.27C54.663,13.935,55.048,14.436,55.417,14.95z"
		/>
	<path d="M40.858,2.181c-0.639-0.194-1.298-0.371-1.958-0.524l-0.454,1.948c0.618,0.144,1.228,0.307,1.831,0.49L40.858,2.181z"/>
	<path d="M36.913,1.263C36.25,1.154,35.58,1.066,34.904,1l-0.194,1.99c0.632,0.062,1.259,0.144,1.879,0.246L36.913,1.263z"/>
	<path d="M44.652,3.61c-0.614-0.278-1.244-0.54-1.874-0.777l-0.705,1.871c0.594,0.224,1.178,0.466,1.751,0.727L44.652,3.61z"/>
	<path d="M51.515,7.887c-0.521-0.428-1.057-0.84-1.606-1.235l-1.167,1.625c0.514,0.369,1.016,0.754,1.503,1.155L51.515,7.887z"/>
	<path d="M48.224,5.524c-0.572-0.357-1.158-0.695-1.755-1.015l-0.944,1.763c0.558,0.299,1.105,0.616,1.641,0.95L48.224,5.524z"/>
	<path d="M44.465,20c-1.211,0-2.351,0.472-3.207,1.329L28,34.586l-3.258-3.257C23.886,30.472,22.746,30,21.535,30
		C19.034,30,17,32.035,17,34.535c0,1.212,0.472,2.351,1.328,3.207l5.551,5.551C24.964,44.378,26.466,45,28,45
		s3.036-0.622,4.121-1.707l15.551-15.55C48.528,26.886,49,25.748,49,24.536C49,22.035,46.966,20,44.465,20z M46.258,26.329
		l-15.551,15.55C29.994,42.592,29.008,43,28,43s-1.994-0.408-2.707-1.121l-5.551-5.551C19.264,35.85,19,35.213,19,34.535
		C19,33.138,20.138,32,21.535,32c0.677,0,1.313,0.264,1.793,0.743l3.965,3.964c0.391,0.391,1.023,0.391,1.414,0l13.965-13.964
		C43.151,22.264,43.788,22,44.465,22C45.862,22,47,23.138,47,24.536C47,25.213,46.736,25.85,46.258,26.329z"/>
</g>
</svg>
