<?xml version="1.0" encoding="iso-8859-1"?>
<!-- Generator: Adobe Illustrator 23.0.3, SVG Export Plug-In . SVG Version: 6.00 Build 0)  -->
<svg version="1.1" id="Layer_1_1_" xmlns="http://www.w3.org/2000/svg" xmlns:xlink="http://www.w3.org/1999/xlink" x="0px" y="0px"
	 viewBox="0 0 64 64" style="enable-background:new 0 0 64 64;" xml:space="preserve">
<path d="M62.348,39.655l-4.836-6.373l0.797-0.604c0.211-0.161,0.351-0.398,0.387-0.661c0.035-0.263-0.034-0.529-0.194-0.74
	l-2.774-3.655c3.38-5.775,3.177-13.269-1.11-18.927c-5.684-7.484-16.395-8.951-23.872-3.271c-2.795,2.122-4.803,4.962-5.87,8.245
	c-9.048-1.89-18.385,3.054-21.689,11.977c-2.585,6.982-0.773,14.52,4.008,19.61l-2.131,3.384c-0.294,0.467-0.153,1.084,0.313,1.379
	l0.848,0.534l-4.251,6.779c-0.293,0.467-0.152,1.083,0.314,1.377l5.062,3.188C7.518,62,7.702,62.05,7.884,62.05
	c0.332,0,0.657-0.165,0.847-0.467l4.263-6.769l0.846,0.533c0.161,0.101,0.346,0.154,0.533,0.154c0.074,0,0.148-0.008,0.222-0.025
	c0.259-0.059,0.483-0.218,0.625-0.442l2.565-4.073c1.067,0.184,2.136,0.277,3.196,0.277c7.722,0,14.999-4.746,17.833-12.401
	c0.351-0.947,0.597-1.906,0.79-2.866c0.493,0.043,0.986,0.071,1.476,0.071c1.818,0,3.609-0.295,5.318-0.864l2.543,3.352
	c0.16,0.211,0.398,0.35,0.661,0.386c0.045,0.006,0.091,0.009,0.136,0.009c0.217,0,0.43-0.071,0.604-0.203l0.798-0.606l4.849,6.365
	c0.197,0.258,0.495,0.394,0.797,0.394c0.21,0,0.423-0.066,0.604-0.204l4.766-3.617C62.596,40.723,62.682,40.095,62.348,39.655z
	 M7.571,59.671L4.2,57.548l3.718-5.93l3.383,2.13L7.571,59.671z M14.06,53.122l-6.77-4.263l1.382-2.194
	c1.657,1.419,3.57,2.59,5.732,3.391c0.438,0.162,0.879,0.295,1.32,0.422L14.06,53.122z M36.938,38.143
	C33.684,46.932,23.888,51.434,15.1,48.179C6.312,44.925,1.809,35.128,5.062,26.34C8.317,17.552,18.119,13.05,26.9,16.304
	C35.688,19.557,40.191,29.354,36.938,38.143z M30.479,15.803c0.668-2.206,2.018-4.165,3.865-5.566
	c4.835-3.666,11.752-2.72,15.417,2.106c3.658,4.838,2.709,11.755-2.115,15.419c-2.235,1.693-5.045,2.451-7.811,2.151
	C39.108,24.11,35.716,18.821,30.479,15.803z M39.895,33.978c0.062-0.68,0.09-1.357,0.079-2.032c0.343,0.027,0.687,0.045,1.03,0.045
	c2.81,0,5.581-0.916,7.851-2.634c5.702-4.331,6.825-12.504,2.502-18.221C47.022,5.43,38.849,4.311,33.136,8.643
	c-2.09,1.586-3.646,3.773-4.469,6.244c-0.355-0.157-0.703-0.323-1.071-0.46c-0.261-0.096-0.525-0.162-0.787-0.247
	c0.95-2.849,2.709-5.315,5.145-7.165c6.603-5.013,16.055-3.718,21.069,2.887c5.008,6.609,3.712,16.061-2.887,21.069
	C47.164,33.226,43.56,34.266,39.895,33.978z M49.93,36.525l-1.616-2.13c1.057-0.502,2.075-1.104,3.031-1.829
	c1.236-0.938,2.292-2.024,3.195-3.201l1.763,2.324L49.93,36.525z M56.976,42.477l-4.242-5.568l3.184-2.416l4.231,5.576
	L56.976,42.477z"/>
<path d="M26.207,18.178c-7.757-2.87-16.398,1.102-19.27,8.857c-1.392,3.756-1.236,7.83,0.437,11.469s4.663,6.41,8.419,7.801
	c1.697,0.628,3.458,0.941,5.216,0.941c2.132,0,4.258-0.461,6.254-1.378c3.64-1.672,6.409-4.663,7.8-8.419
	c1.392-3.756,1.236-7.83-0.437-11.469S29.963,19.569,26.207,18.178z M33.188,36.754c-1.205,3.255-3.606,5.847-6.761,7.296
	c-3.153,1.449-6.683,1.584-9.938,0.378c-3.256-1.205-5.848-3.606-7.297-6.76c-1.45-3.154-1.584-6.684-0.379-9.939
	c1.939-5.238,6.917-8.484,12.201-8.484c1.495,0,3.017,0.26,4.498,0.809c3.256,1.205,5.848,3.606,7.297,6.76
	C34.259,29.968,34.393,33.499,33.188,36.754z"/>
<path d="M42.889,21.684c-0.299-0.045-0.561-0.203-0.738-0.446l-1.615,1.179c0.495,0.679,1.226,1.121,2.058,1.246
	c0.157,0.023,0.315,0.035,0.472,0.035c0.339,0,0.674-0.055,0.994-0.162l0.771,1.055l1.615-1.18l-0.791-1.083
	c0.767-1.093,0.815-2.589-0.006-3.712c-0.496-0.678-1.228-1.121-2.059-1.245c-0.843-0.125-1.684,0.089-2.37,0.603
	c-0.257,0.192-0.569,0.272-0.875,0.226c-0.299-0.044-0.562-0.204-0.739-0.447c-0.381-0.521-0.261-1.267,0.268-1.663
	c0.255-0.191,0.568-0.271,0.876-0.226c0.299,0.045,0.561,0.203,0.738,0.446l1.615-1.179c-0.495-0.679-1.226-1.121-2.058-1.246
	c-0.498-0.074-0.991-0.016-1.457,0.139l-0.78-1.067l-1.615,1.18l0.791,1.083c-0.767,1.093-0.815,2.589,0.006,3.712
	c0.496,0.678,1.228,1.121,2.059,1.245c0.84,0.124,1.683-0.089,2.37-0.604c0.256-0.192,0.572-0.271,0.875-0.226
	c0.299,0.044,0.562,0.204,0.739,0.447c0.381,0.521,0.261,1.266-0.268,1.662C43.508,21.649,43.195,21.728,42.889,21.684z"/>
<path d="M27.462,24.897l-2.397,1.352c-0.322-0.218-0.662-0.411-1.018-0.575V23c0-0.552-0.447-1-1-1h-4.094c-0.553,0-1,0.448-1,1
	v2.674c-0.355,0.164-0.695,0.356-1.018,0.575l-2.397-1.352c-0.475-0.267-1.075-0.106-1.353,0.362l-2.047,3.464
	c-0.137,0.231-0.174,0.508-0.104,0.768c0.069,0.259,0.24,0.48,0.475,0.612l2.375,1.34c-0.017,0.187-0.024,0.372-0.024,0.557
	s0.008,0.37,0.024,0.557l-2.375,1.34c-0.234,0.132-0.405,0.353-0.475,0.612c-0.069,0.26-0.032,0.536,0.104,0.768l2.047,3.464
	c0.277,0.469,0.878,0.63,1.353,0.362l2.397-1.352c0.322,0.218,0.662,0.411,1.018,0.575V41c0,0.552,0.447,1,1,1h4.094
	c0.553,0,1-0.448,1-1v-2.674c0.355-0.164,0.695-0.356,1.018-0.575l2.397,1.352c0.477,0.268,1.075,0.107,1.353-0.362l2.047-3.464
	c0.137-0.231,0.174-0.508,0.104-0.768c-0.069-0.259-0.24-0.48-0.475-0.612l-2.375-1.34c0.017-0.187,0.024-0.372,0.024-0.557
	s-0.008-0.37-0.024-0.557l2.375-1.34c0.234-0.132,0.405-0.353,0.475-0.612c0.069-0.26,0.032-0.536-0.104-0.768l-2.047-3.464
	C28.537,24.791,27.938,24.63,27.462,24.897z M26.542,30.035c-0.374,0.211-0.571,0.636-0.491,1.058
	c0.061,0.318,0.09,0.616,0.09,0.908s-0.029,0.589-0.09,0.908c-0.08,0.421,0.117,0.847,0.491,1.058l2.078,1.172l-1.029,1.742
	l-2.113-1.192c-0.36-0.203-0.813-0.163-1.132,0.104c-0.479,0.4-1.025,0.708-1.626,0.916c-0.402,0.139-0.673,0.519-0.673,0.945V40
	h-2.094v-2.349c0-0.426-0.271-0.806-0.673-0.945c-0.601-0.208-1.147-0.516-1.626-0.916c-0.317-0.266-0.77-0.307-1.132-0.104
	l-2.113,1.192l-1.029-1.742l2.078-1.172c0.374-0.211,0.571-0.636,0.491-1.058c-0.061-0.318-0.09-0.616-0.09-0.908
	s0.029-0.589,0.09-0.908c0.08-0.421-0.117-0.847-0.491-1.058l-2.078-1.172l1.029-1.742l2.113,1.192
	c0.362,0.205,0.814,0.164,1.132-0.104c0.479-0.4,1.025-0.708,1.626-0.916c0.402-0.139,0.673-0.519,0.673-0.945V24h2.094v2.349
	c0,0.426,0.271,0.806,0.673,0.945c0.601,0.208,1.147,0.516,1.626,0.916c0.318,0.268,0.771,0.309,1.132,0.104l2.113-1.192
	l1.029,1.742L26.542,30.035z"/>
<path d="M21,28c-2.206,0-4,1.794-4,4s1.794,4,4,4s4-1.794,4-4S23.206,28,21,28z M21,34c-1.103,0-2-0.897-2-2s0.897-2,2-2
	s2,0.897,2,2S22.103,34,21,34z"/>
<rect x="58" y="56" width="2" height="2"/>
<rect x="58" y="60" width="2" height="2"/>
<rect x="60" y="58" width="2" height="2"/>
<rect x="56" y="58" width="2" height="2"/>
<rect x="39" y="52" width="2" height="2"/>
<rect x="39" y="56" width="2" height="2"/>
<rect x="41" y="54" width="2" height="2"/>
<rect x="37" y="54" width="2" height="2"/>
</svg>
